<?xml version="1.0" encoding="utf-8"?>
<svg version="1.1" id="_1" xmlns="http://www.w3.org/2000/svg" xmlns:xlink="http://www.w3.org/1999/xlink" x="0px" y="0px"
	 width="381px" height="276px" viewBox="0 -52.5 381 276" enable-background="new 0 -52.5 381 276" xml:space="preserve">
<path id="PATH1" fill="#EA3226" stroke="#000000" stroke-miterlimit="100" d="M199,158.49C159.5,167.5,140,196,92.5,194.5
	c-57-2-79-47-63.5-87c2.17,0.5,5.17,0.83,8.5,2.5C26,162,64.33,183.33,98,184.5c44,1.17,43.67-27.17,102-35.5
	c56,11.33,26.67,28,88.5,26.5c51.5-1.5,62.83-52.17,59.33-76.67c3-0.5,8.33-0.67,10-0.83c5.17,36.67-16.33,88.5-66.33,89
	C219,186,244.5,164.5,199,158.49z"/>
<path id="PATH2" fill="#EA3226" d="M126,215c-1.67-7.33,3-25.33,6.67-43.33c3.67-18.33,5.98-37.47,10.67-46.67
	c-14.67,0.33-51.67-14.67-61.33-26.67c11.33-8.67,61.67,1,117,1.33c53,0.67,105.67-9.33,118-1.33c-2,9.33-45.33,27.67-59,31
	c5,8.67,18,82.33,14,89.67c-7.67-2.67-19.67-11-24-15.67c-23,3-75,3.67-94.67-1.67c-8,6.67-18,13.33-27.33,13.33L126,215z"/>
<path id="PATH21" fill="#FDFDF4" d="M299.74,95.24c8.039,0.14,14.029,1,17.26,3.1c-0.88,4.1-9.75,9.95-20.58,15.49
	C293.75,111.25,296.5,98.25,299.74,95.24L299.74,95.24z"/>
<path id="PATH22" fill="#FDFDF4" d="M101.9,112.189C93.16,107.8,85.64,102.85,82,98.33c3.15-2.41,9.31-3.4,17.75-3.57
	C102,98.75,103,110,101.9,112.189z"/>
<path id="PATH19" fill="#FDFDF4" d="M126,215c-0.81-3.55-0.13-9.609,1.2-16.96c3.8,0.46,13.3,7.96,15.11,11.58
	c-5.32,3.159-10.93,5.38-16.32,5.38H126z"/>
<path id="PATH20" fill="#FDFDF4" d="M272.24,203.5c0.699,7.88,0.75,13.7-0.24,15.5c-3.87-1.35-8.85-4.141-13.391-7.17
	c0.641-2.58,9.141-8.08,13.621-8.33H272.24z"/>
<path id="PATH3" fill="#9A242E" d="M150.8,200.2c11,0.2,86.8,1.8,97.8-0.2c-4-1.4,14.43,14.8,9.851,11.721
	c-2.479-1.671-4.83-3.4-6.78-5.011c-1.49-1.229-2.76-2.38-3.68-3.37c-23,3-75,3.67-94.67-1.67c-1.39,1.16-2.85,2.32-4.35,3.45
	c-1.72,1.29-3.51,2.54-5.33,3.69c-5.71,3.59,5.15-3.801,7.15-8.601L150.8,200.2z"/>
<path id="PATH4" fill="#DD4549" d="M102.67,111.67c1.42-5.58,28.83,8.08,39.46,9.33c1.13,0.13-1.38,3.33-2.46,4
	C133.17,123.33,107.75,115.33,102.67,111.67z"/>
<path id="PATH5" fill="#8D2325" d="M141.17,131.5c0.58-1.92,2.17-5.75,1.83-6.67c-2.67,0.25-8.25-0.67-10.92-1.58
	c6-0.5,10.75-1.42,14.92-6.58C147.5,118.17,144.25,127.67,141.17,131.5z"/>
<path id="PATH6" fill="#8D2325" d="M261.88,143c0.75,0-4.96-14.08-3.46-14.08c2.75-1,9.67-2.33,11.42-3.5
	c-6.42-0.08-12.58,0.33-16.71-4.79c-0.5,1.5,4.13,14.63,8.75,22.38V143z"/>
<path id="PATH7" fill="#FDFDF4" stroke="#000000" stroke-miterlimit="10" d="M199.17,155.17c-20.83-0.17-45.17-9.67-45.17-26
	c0-15.5,19-25.33,42.33-25.33c23.5,0,42,5.17,42.17,24.67c0,12.33-9.83,26.33-39.33,26.67V155.17z"/>
<path id="PATH8" fill="#B2B1AE" d="M199,127.17c-24.17-0.5-38.83-6.83-38.5-9.5c0.33-4,17.44-5.82,37.08-5.82
	c19.65,0,36.25,2.32,36.08,6.49c-0.5,3-12.83,8.83-34.67,8.83H199z"/>
<path id="PATH9" fill="#64645E" stroke="#000000" stroke-miterlimit="100" d="M197,122c-27.33,0-41.5-6.67-41.33-8.67
	c0-4.17,19.27-5.66,41.58-5.66c22.32,0,40.92,2.32,40.92,6.49c0,4.33-11.67,7.67-41.17,7.83V122z"/>
<path id="PATH10" fill="#A1F8E5" d="M194.33,140.49c-8.74,0-15.82-7.08-15.82-15.82s7.08-15.82,15.82-15.82s15.82,7.08,15.82,15.82
	S203.07,140.49,194.33,140.49L194.33,140.49z"/>
<path id="PATH11" fill="#60A99D" d="M193.5,139.42c-7.67-0.17-14.25-5.58-14.25-12.08c1.67-3,4.25,0.17,6,0.08
	c3.33-3.25,10.25-6.33,11-2.33c4.5-1.58,9,6.83,9,10.67c-2.5,3.17-8.58,3.58-11.75,3.67V139.42z"/>
<path id="PATH12" fill="#BBCCC0" stroke="#000000" stroke-miterlimit="100" d="M178.86,128.01c-0.23-1.08-0.35-2.199-0.35-3.34
	c0-8.74,7.08-15.82,15.82-15.82s15.82,7.08,15.82,15.82c0,0.79-0.061,1.57-0.17,2.33C203.58,118.84,184.91,116.92,178.86,128.01z"/>
<path id="PATH2_1_" fill="none" stroke="#000000" stroke-miterlimit="10" d="M126,215c-1.67-7.33,3-25.33,6.67-43.33
	c3.67-18.33,5.98-37.47,10.67-46.67c-14.67,0.33-51.67-14.67-61.33-26.67c11.33-8.67,61.67,1,117,1.33c53,0.67,105.67-9.33,118-1.33
	c-2,9.33-45.33,27.67-59,31c5,8.67,18,82.33,14,89.67c-7.67-2.67-19.67-11-24-15.67c-23,3-75,3.67-94.67-1.67
	c-8,6.67-18,13.33-27.33,13.33L126,215z"/>
<path id="PATH13" fill="#FAEB77" d="M271.25,185.25c-14.5,2.75-127.5,1.75-141.5-1.25c-1.75-4.75-1.5-33.75,5.75-36.5
	c16.25,2,113.75,5,132.5,3.5C271,158,272.5,174.75,271.25,185.25z"/>
<path id="PATH14" fill="#B8A93A" d="M271.25,185.25c-14.5,2.75-127.5,1.75-141.5-1.25c-0.32-0.87-0.57-2.561-0.73-4.75
	c30.98,4,78.98,6.75,142.23,3C271.25,183.5,271.4,184,271.25,185.25z"/>
<path id="PATH15" fill="none" stroke="#000000" stroke-miterlimit="100" d="M149.75,148.5c0,0-2.37,12.6-3,20.25
	c-0.49,5.98-0.5,16.689-0.5,16.689"/>
<path id="PATH16" fill="none" stroke="#000000" stroke-miterlimit="100" d="M182.855,149.997c0,0-1.335,12.394-1.855,19.253
	c-0.5,6.55-1,17.251-1,17.251"/>
<path id="PATH17" fill="none" stroke="#000000" stroke-miterlimit="100" d="M221.25,151.25c0,0,0.391,11.1,0.75,17.75
	c0.38,6.939,1.25,17.862,1.25,17.862"/>
<path id="PATH18" fill="none" stroke="#000000" stroke-miterlimit="100" d="M255.564,151.384c0,0,1.105,10.757,1.436,17.616
	c0.311,6.561,0.25,17.5,0.25,17.5"/>
<path id="PATH23" fill="#5FC8B3" stroke="#000000" stroke-miterlimit="100" d="M40.67,110.67c-6.17-0.279-8.17-4.42-18.67-3.17
	c-5.5-2.75-14.5-8-15.33-16.83C1.75,71.5,11,47.75,23,49.67c2-6.92,7.75-21.67,13-28c1.5,9.08,1,17.58,4.67,26
	c1.92,0.2,2.46,2.02,3.71,3.15c1.25,1.19,3.3,1.73,5.4,2.42c16.73,17.021-2.09,53.64-9.1,57.44L40.67,110.67z"/>
<path id="PATH24" fill="#C6FFF9" d="M24.25,100c-5.75-0.5-12-11.25-10.25-21.75c-2.75-7.5,7-18.75,10.75-19
	c0.58-0.58,4.17-3.25,4.92-7.25c1.08-0.58,1.58-0.08,2.17,0c2.08,2.33,1.25,6.67,2.17,7.75c1,3,4.97,0.75,6.25,0.75
	c1.71,0,7.5,11,6.25,21c-1.25,8.75-5.75,16.75-9.25,17.75c0,1.33-5.08,1.17-5.08-2c-0.67-1.33-0.57-2.65,0.5-5.17
	c3.17-0.08,6.25-5,7-8.17c1.67-8.17-3.08-12.17-5.33-12.17c-4.33,0-7.25,1.83-7.67,3.92c-0.92,4.75-3,6.42-3,9
	c0,5,2.08,8.25,4.08,10.92c0.33,3.17-0.92,4.5-3.5,4.42H24.25z"/>
<path id="PATH25" fill="#5FC8B3" stroke="#000000" stroke-miterlimit="100" d="M347.25,99c-3.5-1-8-6-10.75-7.42
	c-3.83-2.17-7.35-3.59-9.25-5.83c-2.75-1.75-8.42-9.58-8.92-12.42C316.25,70.5,316,57,317.25,55.25c1.95-4.65,8.55-15.65,16.5-19.75
	c3,0-0.15,3.7,2.25,4c9,0.7,12.75-12.25,12.75-9.25c0,0.33,4.25-13.25,5.5-23.25c3,1.75,12.55,16.4,14.35,19.8
	c3.801,6.8,6,22.8,6.4,26.8c0.8,18-7.2,25-8.5,28.15c-1.08,1.67-1.33,4.42-2.75,7.25c-0.92,4.25-3.32,7.27-5.25,8.92
	C355.5,98.09,349.17,98,347.25,99z"/>
<path id="PATH26" fill="#C6FFF9" d="M350.471,86.58c-1.841,0-3.641-0.23-5.361-0.65c-1.17-0.29-0.909-3.32-0.34-6.92
	c2.82-1.46,4.931,0.47,7.431-0.3c1.729-7.11-3.841-13.65-6.729-13.26c-0.771-0.58-5.961-1.35-8.461,1.54
	c-3.84,2.69,0.961,10.38-4.66,10.31c-2.979-4.05-4.76-9.19-4.76-14.93c0.189-11.15,2.881-6.53,5.96-12.88
	c4.61-2.69,5.38,5.771,8.46,4.61c2.69,0.38,6.53-1.73,8.26-4.04c1.42-1.35,2.311-1.54,2.881-3.84c-0.58-4.04,1.539-8.65,3.649-9.8
	c4.61,4.42,11.921,6.92,12.3,16.14c0.381,9.23-1.539,14.8-10.189,18.64c-1.54,3.27,1.35,7.88,0.07,11.61
	c-1.23,3-5.26,3.77-8.53,3.77H350.471z"/>
<path id="PATH10_1_" fill="none" stroke="#000000" stroke-miterlimit="100" d="M194.33,139.905c-8.74,0-15.82-7.08-15.82-15.82
	s7.08-15.82,15.82-15.82s15.82,7.08,15.82,15.82S203.07,139.905,194.33,139.905L194.33,139.905z"/>
<path id="PATH13_1_" fill="none" stroke="#000000" stroke-miterlimit="100" d="M271.572,185.25C257.072,188,144.073,187,130.073,184
	c-1.75-4.75-1.5-33.75,5.75-36.5c16.25,2,113.749,5,132.499,3.5C271.322,158,272.822,174.75,271.572,185.25z"/>
<g>
	<path id="PATH1_2_" fill="#EA3325" d="M265.969,104.95c-29.905,13.802-97.125,13.802-136.486-0.256
		C94.21,92.169,96.341,59.54,100.855,38.75c5.198-24.368,22.068-42.94,36.719-54.018c-6.135-11.246-26.071-22.661-35.272-25.728
		c13.802-5.112,56.062,4.601,62.708,12.269c11.757-6.646,60.319-7.413,71.565-1.534c16.357-11.757,43.451-20.447,59.043-16.102
		c-5.113,4.856-30.928,21.214-35.697,28.882c8.01,6.303,20.616,16.016,25.729,26.326C308.995,55.451,304.053,87.313,265.969,104.95z
		"/>
	<path id="PATH2_3_" fill="#D25FB5" d="M137.66-15.18c-5.111,3.323-22.748,20.703-26.07,28.627
		c-4.346-4.345-12.523-46.007-9.201-54.186C109.545-38.951,131.526-27.193,137.66-15.18z"/>
	<path id="PATH3_1_" fill="#A53F87" d="M137.66-15.18c-1.799,1.17-5.158,4.09-8.895,7.719c-3.885-4.908-5.93-15.898-5.397-22.319
		C129.436-25.476,135.018-20.354,137.66-15.18z"/>
	<path id="PATH4_2_" fill="#D25FB5" d="M259.578-17.225c5.112,3.323,22.236,17.636,25.56,25.56
		c2.377-3.103,4.714-11.098,6.604-20.146c-1.748-2.602-7.116-7.203-10.693-10.27c2.812-2.556,8.69-5.111,12.779-5.878
		c2.812-7.668,2.326-14.927,2.044-18.403C290.761-42.273,266.735-26.426,259.578-17.225z"/>
	<path id="PATH5_1_" fill="#A53F87" d="M259.578-17.225c2.516,1.636,7.944,5.935,13.204,10.827
		c2.132-5.971,4.688-17.217,3.44-25.605c-6.794,5.153-13.429,10.644-16.649,14.784L259.578-17.225z"/>
	<path id="PATH6_1_" fill="#FCFDF4" d="M129.482,104.694c-7.413-6.39-13.036-26.582,3.833-34.761
		c3.834-1.789,26.837-10.479,30.16-11.246c5.879-1.789,20.703-8.946,21.214-18.402c0.256-7.413-7.668-8.435-5.111-17.125
		C182.9,12.68,197.98,9.102,204.115,5.779c2.474,0-11.246,13.291-7.157,18.402c5.879,7.413,16.869,10.224,20.447,15.847
		c1.789,3.067,1.021,9.968,2.556,14.569c0.256,1.278,6.135,4.601,12.78,6.134c6.646,1.534,22.237,3.323,28.627,6.901
		c17.125,9.457,12.012,30.416,4.089,37.062c-5.111,4.345-37.571,10.224-66.709,9.968
		C163.987,114.15,134.338,108.783,129.482,104.694z"/>
	<path id="PATH7_2_" fill="#F0786B" d="M158.609,2.017c-8.604,5.378-16.604,8.363-18.648,5.295
		c-2.045-3.323,2.045-12.779,10.479-18.147c8.69-5.368,18.403-5.112,20.448-2.045C172.933-9.557,167.213-3.361,158.609,2.017
		L158.609,2.017z"/>
	<g>
		<path id="PATH8_1_" fill="#F8FEB2" stroke="#231815" stroke-miterlimit="10" d="M146.606,76.322
			c-8.896,0-16.103-6.982-16.103-15.591c0-8.608,7.207-15.591,16.103-15.591c8.895,0,16.103,6.983,16.103,15.591
			C162.709,69.34,155.501,76.322,146.606,76.322z"/>
		<path id="PATH9_1_" fill="#302C26" d="M147.245,72.483c-6.421,0-11.624-5.204-11.624-11.625s5.203-11.624,11.624-11.624
			s11.625,5.204,11.625,11.624C158.87,67.28,153.666,72.483,147.245,72.483z"/>
	</g>
	<g>
		<path id="PATH10_2_" fill="#F8FEB2" stroke="#231815" stroke-miterlimit="10" d="M248.588,74.278
			c-8.471,0-15.335-7.325-15.335-16.358c0-9.033,6.864-16.357,15.335-16.357c8.47,0,15.335,7.325,15.335,16.357
			C263.923,66.953,257.058,74.278,248.588,74.278z"/>
		<path id="PATH11_1_" fill="#302C26" d="M248.972,69.417c-6.422,0-11.625-5.205-11.625-11.625c0-6.421,5.204-11.624,11.625-11.624
			c6.42,0,11.623,5.204,11.623,11.624S255.392,69.417,248.972,69.417z"/>
	</g>
	<path id="PATH13_3_" fill="#8F3F67" d="M198.236,108.018c-3.854-0.145-10.489-4.03-15.652-9.658
		c6.451-6.957,25.62-6.446,29.347,1.1c-4.58,5.142-10.198,8.691-13.698,8.557L198.236,108.018z"/>
	<g>
		<path id="PATH12_1_" fill="#36202B" stroke="#231815" stroke-miterlimit="10" d="M198.236,108.018
			c-6.901-0.256-22.748-12.525-23.003-25.305c6.901,0,35.783-0.767,44.217,0.511C219.194,95.236,204.882,108.273,198.236,108.018z"
			/>
		<path id="PATH13_2_" fill="#8F3F67" stroke="#231815" stroke-miterlimit="10" d="M198.236,108.018
			c-3.854-0.145-10.489-4.03-15.652-9.658c6.451-6.957,25.62-6.446,29.347,1.1c-4.58,5.142-10.198,8.691-13.698,8.557
			L198.236,108.018z"/>
		<path id="PATH14_1_" fill="#BE588A" d="M198.236,107.633c-2.597-0.096-6.462-1.891-10.28-4.78
			c-5.821-8.767,23.061-9.278,20.335-0.194c-3.655,3.128-7.444,5.072-10.05,4.974H198.236L198.236,107.633z"/>
		<path id="PATH15_1_" fill="#FCFDF4" d="M209.717,90.319l3.451-6.359l-4.264-0.828l0.819,7.188L209.717,90.319L209.717,90.319z"/>
		<path id="PATH16_1_" fill="#FCFDF4" d="M186.5,90.319l-3.451-6.359l4.264-0.828l-0.818,7.188L186.5,90.319L186.5,90.319z"/>
	</g>
	<g>
		<path id="PATH17_1_" fill="#FCFDF4" d="M156.574,90.892c-3.834,0-8.945-1.534-8.945-6.646c0-2.301,5.505-4.084,9.457-4.084
			c3.951,0,40.383-5.374,40.383-3.073C197.469,79.39,175.744,91.914,156.574,90.892z"/>
		<path id="PATH18_1_" fill="#CDCEC1" d="M156.574,90.892c-3.834,0-8.945-1.534-8.945-6.646c1.789,3.067,6.391,5.623,14.058,4.856
			c2.301-0.255,18.914-0.511,35.782-12.013C197.469,79.39,175.744,91.914,156.574,90.892z"/>
		<path id="PATH19_1_" fill="#FCFDF4" d="M241.431,87.313c3.324,0,8.436-2.557,8.691-7.924c0-2.3-7.924-2.556-11.758-2.556
			c-4.09,0-39.872-1.79-39.872,0.511C203.604,82.201,214.338,89.613,241.431,87.313z"/>
		<path id="PATH20_1_" fill="#CDCEC1" d="M241.431,87.313c3.324,0,8.436-2.557,8.691-7.924c-2.046,3.067-4.09,6.134-13.547,6.646
			c-10.735,0.511-27.349-1.533-38.083-8.69C203.604,82.201,214.338,89.613,241.431,87.313z"/>
		<path id="PATH21_1_" fill="none" stroke="#000000" stroke-miterlimit="100" d="M147.117,84.246c0,0-1.533,7.413,13.035,7.413
			c12.27,0,24.026-5.112,37.316-13.803c8.18,5.368,19.426,10.224,34.25,9.968c20.448-0.256,18.403-8.69,18.403-8.69"/>
	</g>
	<path id="PATH23_1_" fill-opacity="0.15" d="M265.969,104.95c-29.905,13.802-97.125,13.802-136.486-0.256
		c-12.29-4.36-20.034-11.165-24.727-19.057c15.269,15.224,45.939,27.746,95.524,26.215c52.396-1.789,70.8-8.946,94.274-31.72
		C289.228,90.288,279.775,98.554,265.969,104.95z"/>
	<path id="PATH2_2_" fill="none" stroke="#231815" stroke-miterlimit="10" d="M137.66-15.18
		c-5.111,3.323-22.748,20.703-26.07,28.627c-4.346-4.345-12.523-46.007-9.201-54.186C109.545-38.951,131.526-27.193,137.66-15.18z"
		/>
	<path id="PATH4_1_" fill="none" stroke="#231815" stroke-miterlimit="10" d="M259.578-17.411
		c5.112,3.323,22.236,17.636,25.56,25.56c2.377-3.103,4.714-11.099,6.604-20.146c-1.748-2.602-7.116-7.202-10.693-10.27
		c2.812-2.556,8.69-5.112,12.779-5.878c2.812-7.668,2.326-14.927,2.044-18.403C290.761-42.459,266.735-26.613,259.578-17.411z"/>
	<g>
		<path id="PATH22_1_" fill="#C289B9" stroke="#231815" stroke-miterlimit="10" d="M198.236,69.166
			c-2.47,0.256-5.111-2.131-5.367-3.578s10.095-1.534,9.968-0.256C202.709,66.994,201.048,68.911,198.236,69.166z"/>
		<path id="PATH7_1_" fill="#DB9BD1" d="M196.817,66.711c-0.594-0.045-1.03-0.19-0.922-0.423c0.12-0.245,0.796-0.577,1.384-0.538
			c0.595,0.049,0.905,0.424,0.797,0.656C197.955,66.652,197.411,66.756,196.817,66.711L196.817,66.711z"/>
	</g>
	<path id="PATH1_1_" fill="none" stroke="#000000" stroke-miterlimit="10" d="M265.969,104.95
		c-29.905,13.802-97.125,13.802-136.486-0.256C94.21,92.169,96.341,59.54,100.855,38.75c5.198-24.368,22.068-42.94,36.719-54.018
		c-6.135-11.246-26.071-22.661-35.272-25.728c13.802-5.112,56.062,4.601,62.708,12.269c11.757-6.646,60.319-7.413,71.565-1.534
		c16.357-11.757,43.451-20.447,59.043-16.102c-5.113,4.856-30.928,21.214-35.697,28.882c8.01,6.303,20.616,16.016,25.729,26.326
		C308.995,55.451,304.053,87.313,265.969,104.95z"/>
</g>
</svg>